<?xml version="1.0" standalone="no"?>
<!DOCTYPE svg PUBLIC "-//W3C//DTD SVG 1.1//EN" "http://www.w3.org/Graphics/SVG/1.1/DTD/svg11.dtd" >
<svg xmlns="http://www.w3.org/2000/svg">
<metadata></metadata>
<defs>
<font id="vanlose_booktypenormal" horiz-adv-x="1085" >
<font-face units-per-em="2048" ascent="1638" descent="-410" />
<missing-glyph horiz-adv-x="604" />
<glyph unicode="&#xd;" horiz-adv-x="508" />
<glyph horiz-adv-x="0" />
<glyph horiz-adv-x="0" />
<glyph unicode=" "  horiz-adv-x="604" />
<glyph unicode="&#x09;" horiz-adv-x="604" />
<glyph unicode="&#xa0;" horiz-adv-x="604" />
<glyph unicode="!" horiz-adv-x="596" d="M188 1176l44 -888h93l44 888h-181zM195 0h167v167h-167v-167z" />
<glyph unicode="&#x22;" horiz-adv-x="708" d="M96 1661l32 -485h97l32 484zM419 1661l32 -485h97l32 484z" />
<glyph unicode="#" horiz-adv-x="924" d="M43 151h156v-151h112v151h270v-151h112v151h146v112h-146v270h146v112h-146v151h-112v-151h-270v151h-112v-151h-156v-112h156v-270h-156v-112zM311 263v270h270v-270h-270z" />
<glyph unicode="$" horiz-adv-x="707" d="M27 150q72 -58 242 -71v-79h111v82q108 15 169 78q72 74 72 211q0 103 -60 169q-53 58 -181 114v329q86 -6 167 -32l35 103q-110 40 -202 46v72h-111v-78q-110 -22 -170 -103q-52 -69 -52 -156q0 -89 60 -154q52 -57 162 -108v-374q-136 12 -208 58q-23 -73 -34 -107z M176 850q0 97 93 124v-265q-93 57 -93 141zM380 205v316q113 -62 113 -160q0 -126 -113 -156z" />
<glyph unicode="%" horiz-adv-x="1410" d="M26 837q0 133 51 227q61 111 168 111q105 0 164 -108q49 -90 49 -220q0 -139 -55 -237q-62 -108 -164 -108t-161 107q-52 94 -52 228zM150 836q0 -85 24 -147q26 -69 68 -69q39 0 65 60q28 63 28 157q0 87 -25 150q-26 70 -67 70q-38 0 -65 -61q-28 -65 -28 -160zM374 0 h132l452 1165h-132zM886 341q0 133 51 226q61 112 168 112q105 0 164 -108q49 -90 49 -220q0 -139 -56 -237q-61 -108 -163 -108q-103 0 -161 107q-52 94 -52 228zM1010 340q0 -85 24 -147q26 -69 68 -69q39 0 65 60q28 63 28 157q0 86 -25 150q-26 69 -67 69q-39 0 -65 -61 q-28 -65 -28 -159z" />
<glyph unicode="&#x26;" horiz-adv-x="1032" d="M27 312q-4 -40 5 -82q2 -11 4 -20l3 -10l2 -9q6 -19 18 -41q19 -37 53 -67q56 -52 139 -76q71 -20 149 -17q149 7 279 86q16 10 32 22l79 -101h170q-95 122 -150 194q38 45 66 97q63 116 83 271l-134 14q-8 -128 -58 -228q-14 -28 -34 -56q-71 91 -64 82 q-121 154 -162 205l-52 64q33 25 57 46q60 50 100 97q25 29 44 59q5 9 9 16l2 4l3 5l4 7q10 20 16 38q14 40 15 80q1 43 -12 83q-25 77 -95 130q-64 48 -145 58q-83 10 -157 -27q-36 -17 -65 -44q-32 -27 -53 -60q-47 -70 -44 -157q2 -71 35 -149q27 -61 72 -124l46 -59 l-48 -36q-66 -52 -104 -91q-61 -62 -87 -123q-17 -39 -21 -81zM154 268q-14 48 1 93q14 45 57 92q34 38 91 83q19 15 47 36l287 -370q-11 -8 -22 -15q-98 -62 -216 -59q-58 0 -109 17q-54 17 -88 47q-17 15 -30 33q-4 7 -9 18l-5 13q-2 5 -4 12zM256 990q-3 53 19 93 q10 20 29 40q20 20 40 32q46 26 97 19q51 -5 92 -41q38 -33 52 -81q12 -47 -3 -93q-3 -9 -9 -22l-4 -8l-1 -2l-2 -3l-7 -12q-14 -23 -33 -47q-33 -42 -84 -88q-22 -19 -53 -44l-5 6q-29 35 -39 48q-81 109 -89 203z" />
<glyph unicode="'" horiz-adv-x="383" d="M85 1661l32 -485h97l32 484z" />
<glyph unicode="(" horiz-adv-x="651" d="M257 138q79 -300 244 -563h150q-188 271 -273 600q-197 761 289 1439h-153q-460 -699 -257 -1476z" />
<glyph unicode=")" horiz-adv-x="660" d="M-53 1611h152q460 -698 257 -1473q-79 -300 -243 -562h-151q188 271 273 599q197 759 -288 1436z" />
<glyph unicode="*" horiz-adv-x="654" d="M8 1218l168 20l-91 -70l97 -96l71 89l-20 -165h163l-20 166l71 -90l97 96l-91 70l168 -20v160l-167 -19l90 69l-97 96l-71 -90l20 166h-163l20 -165l-71 89l-97 -96l90 -69l-167 19v-160z" />
<glyph unicode="+" horiz-adv-x="1091" d="M104 501v140h350v369l1 1h139v-370h349l1 -1v-139h-350v-370h-140v370h-350z" />
<glyph unicode="," horiz-adv-x="584" d="M180 1v200h200v-200q0 -138 -73 -188q-43 -28 -127 -28v79q55 0 76 26q25 30 25 111h-101z" />
<glyph unicode="-" horiz-adv-x="1159" d="M144 503h831v125h-831v-125z" />
<glyph unicode="." horiz-adv-x="559" d="M178 0h200v200h-200v-200z" />
<glyph unicode="/" horiz-adv-x="784" d="M108 0h133l455 1174h-133z" />
<glyph unicode="0" horiz-adv-x="973" d="M144 585q1 239 91 403q100 183 271 183t269 -183q87 -164 83 -403q-4 -237 -95 -402q-101 -183 -267 -183t-264 183q-89 165 -88 402zM275 585q-1 -189 56 -320q62 -146 171 -146q108 0 171 146q57 131 56 320q0 190 -57 321q-63 145 -169 145q-107 0 -170 -145 q-57 -131 -58 -321z" />
<glyph unicode="1" horiz-adv-x="595" d="M23 1057l47 -105l235 75v-1027h153v1175h-153z" />
<glyph unicode="2" horiz-adv-x="894" d="M72 47q-25 51 18 92q61 59 388 375q120 119 150 247q29 119 -27 206q-57 88 -176 106q-131 18 -296 -56l-52 114q215 103 395 74q163 -27 250 -151q85 -121 58 -279q-27 -170 -178 -314l-327 -327h534v-134h-663q-49 0 -74 47z" />
<glyph unicode="3" horiz-adv-x="811" d="M45 60q25 68 36 99q132 -62 289 -44q211 24 211 225q0 100 -52 163q-54 65 -146 68h-96v117h96q86 0 134 62q49 65 33 168q-19 109 -115 136q-112 32 -327 -49q-24 57 -46 100q244 106 411 68q173 -40 215 -223q25 -111 -15 -193q-39 -84 -141 -126q93 -30 151 -109 q60 -81 60 -186q0 -170 -100 -259q-82 -73 -224 -85q-112 -9 -237 18q-106 25 -137 50z" />
<glyph unicode="4" horiz-adv-x="945" d="M91 378q-21 44 7 80q26 37 505 716h174v-718h164v-122h-164v-334h-150v334h-466q-48 0 -70 44zM239 456h388v558z" />
<glyph unicode="5" horiz-adv-x="871" d="M90 70l17 123q185 -93 368 -54q90 18 143 69q58 56 63 143q7 128 -60 191q-83 79 -294 78q-67 0 -159 -1l74 555h553v-132h-449l-36 -291q51 1 94 0q231 -6 340 -143q82 -103 74 -240q-7 -143 -90 -235q-73 -81 -194 -114q-110 -29 -235 -14q-119 15 -209 65z" />
<glyph unicode="6" horiz-adv-x="987" d="M145 484q0 263 146 453q180 235 521 235v-126q-215 0 -370 -143q-140 -128 -140 -267q17 33 61 66q87 67 219 67q151 0 246 -101q95 -102 96 -266q1 -184 -100 -292q-102 -110 -279 -110q-400 0 -400 484zM297 416q-16 -118 60 -208q77 -89 192 -89q99 0 166 75 q67 77 67 197t-70 191q-69 70 -177 70q-77 0 -146 -61q-77 -68 -92 -175z" />
<glyph unicode="7" horiz-adv-x="834" d="M46 1046h576v-4l-511 -1042h165l564 1178h-794v-132z" />
<glyph unicode="8" horiz-adv-x="956" d="M124 325q0 -156 104 -241q102 -84 283 -84t282 84q104 85 104 241q0 134 -70 224q-59 75 -153 106q160 60 160 254q0 128 -87 199q-86 70 -236 70q-151 0 -236 -70q-87 -71 -87 -199q0 -194 160 -254q-95 -31 -154 -106q-70 -90 -70 -224zM264 328q-3 125 71 198 q65 64 176 74q110 -10 176 -74q73 -73 70 -198q-3 -93 -72 -155q-70 -62 -174 -61q-105 -1 -175 61q-69 62 -72 155zM318 909q0 75 49 116q49 42 144 42q94 0 144 -42q48 -41 48 -116q0 -99 -61 -151q-50 -42 -131 -47q-82 5 -131 47q-62 52 -62 151z" />
<glyph unicode="9" horiz-adv-x="922" d="M105 771q-1 184 95 292q97 110 266 110q380 0 380 -484q0 -263 -138 -453q-172 -236 -497 -236v126q205 0 353 143q133 129 133 268q-17 -34 -58 -67q-83 -66 -208 -66q-144 0 -234 101q-91 101 -92 266zM240 781q0 -119 67 -191q65 -69 169 -69q73 0 138 61 q74 68 88 174q15 118 -58 208t-182 90q-95 0 -158 -75q-64 -78 -64 -198z" />
<glyph unicode=":" horiz-adv-x="396" d="M79 0h199v199h-199v-199zM79 598h199v198h-199v-198z" />
<glyph unicode=";" horiz-adv-x="393" d="M77 -1v196h197v-196q0 -135 -72 -184q-42 -28 -125 -28v78q54 0 75 24q23 31 23 110h-98zM77 599h197v196h-197v-196z" />
<glyph unicode="&#x3c;" horiz-adv-x="895" d="M27 495l768 -302v146l-600 246l600 222v149l-768 -292v-169z" />
<glyph unicode="=" horiz-adv-x="785" d="M59 397h633v114h-633v-114zM59 685h633v114h-633v-114z" />
<glyph unicode="&#x3e;" horiz-adv-x="884" d="M61 202l756 297v167l-756 287v-147l591 -219l-591 -242v-143z" />
<glyph unicode="?" horiz-adv-x="643" d="M-33 1042q58 74 159 109q98 33 200 20q106 -14 175 -75q77 -67 88 -174q12 -117 -33 -196q-38 -68 -156 -162q-94 -75 -123 -120q-36 -58 -38 -160h-88q-1 132 30 207q37 89 138 158q150 103 127 248q-12 74 -60 115q-42 36 -106 40q-130 9 -231 -90q-45 39 -82 80z M114 0v165h164v-165h-164z" />
<glyph unicode="@" horiz-adv-x="2013" d="M99 358q78 -483 474 -684q189 -95 401 -95q215 0 405 97l-57 112q-160 -82 -346 -82q-186 -1 -346 80q-339 172 -407 592q-55 336 70 629q137 324 436 426q180 62 363 49q184 -14 329 -98q269 -156 332 -493q30 -155 10 -304q-23 -178 -111 -290q-78 -98 -187 -135 q-131 -45 -166 82v245q0 189 -114 279q-148 115 -459 28q18 -55 27 -100q284 86 373 -62q44 -74 31 -165q-213 49 -344 -20q-133 -70 -133 -237q0 -68 37 -126q39 -59 103 -87q156 -67 343 76q24 18 55 15q29 -3 49 -23q103 -101 264 -25q125 58 219 177q209 264 127 696 q-75 393 -392 577q-360 209 -796 60q-340 -116 -502 -470q-152 -330 -88 -724zM797 229q0 110 103 145q94 31 260 -5v-115q-31 -83 -94 -126q-56 -39 -123 -39q-60 0 -100 34q-46 39 -46 106z" />
<glyph unicode="A" horiz-adv-x="1010" d="M5 0h158l121 366h408l123 -366h163l-396 1176h-196zM317 490l165 555l178 -555h-343z" />
<glyph unicode="B" horiz-adv-x="873" d="M61 4v1170q192 23 298 23q396 0 396 -329q0 -94 -41 -170q-45 -84 -127 -118q90 -20 146 -93q58 -75 58 -175q0 -204 -133 -275q-87 -46 -277 -46h-38q-206 4 -282 13zM215 118q83 -7 147 -7q101 0 159 17q136 38 136 176q0 105 -66 161q-56 47 -142 47h-234v-394z M215 627h171q113 0 175 73q54 64 54 160q0 106 -58 164q-60 60 -174 60q-119 0 -168 -11v-446z" />
<glyph unicode="C" horiz-adv-x="972" d="M9 581q0 -141 53 -261q56 -127 163 -208q161 -122 402 -122q132 0 289 37q-22 80 -32 124q-135 -34 -247 -34q-160 0 -273 69q-193 116 -194 399q1 282 194 399q113 68 272 68q112 0 248 -34q10 44 32 125q-154 36 -285 36q-244 0 -406 -125q-107 -82 -163 -210 q-53 -121 -53 -263z" />
<glyph unicode="D" d="M78 -1v1173q147 26 308 26q226 0 382 -102q226 -147 226 -475q0 -377 -245 -534q-159 -102 -408 -102q-146 0 -263 14zM223 116q49 -7 147 -7q233 0 359 132q125 132 125 375q1 215 -115 336q-120 124 -346 124q-101 0 -170 -16v-944z" />
<glyph unicode="E" horiz-adv-x="837" d="M79 0h697v127h-543v352l436 2v123h-436v444h543v128h-697v-1176z" />
<glyph unicode="F" horiz-adv-x="801" d="M84 0h154v477l447 2v125h-447v444h543v128h-697v-1176z" />
<glyph unicode="G" horiz-adv-x="1017" d="M5 589q0 288 203 458q165 138 408 138q88 0 185 -18q-4 -27 -24 -128q-73 13 -140 13q-168 0 -293 -83q-185 -123 -185 -376q0 -267 176 -394q118 -87 278 -87q58 0 123 12q49 9 49 74v216q0 29 -16 49q-20 24 -59 24h-109v124h314v-566q-157 -53 -312 -55h-11 q-158 0 -283 57q-141 63 -218 191q-86 142 -86 351z" />
<glyph unicode="H" horiz-adv-x="1132" d="M86 0h148v482l614 1v-483h148v1175h-148v-568h-614v568h-148v-1175z" />
<glyph unicode="I" horiz-adv-x="377" d="M85 0v1174h153v-1174h-153z" />
<glyph unicode="J" horiz-adv-x="839" d="M29 0v140q185 0 264 15q113 22 182 92q78 78 100 174q13 60 13 215v23v376h-559v140h699v-516v-19q0 -181 -18 -259q-30 -128 -136 -234q-98 -98 -251 -129q-92 -18 -294 -18z" />
<glyph unicode="K" horiz-adv-x="878" d="M84 0h140v328l82 115l378 -443h169l-467 561l467 613h-168l-461 -593v593h-140v-1174z" />
<glyph unicode="L" horiz-adv-x="822" d="M80 0h697v127h-544v1048h-153v-1175z" />
<glyph unicode="M" horiz-adv-x="1383" d="M43 0h152l66 1022l319 -1022h174l302 1022l82 -1022h154l-93 1173h-239l-289 -962l-302 962h-244z" />
<glyph unicode="N" horiz-adv-x="1117" d="M81 0h132v956l630 -956h142v1173h-132v-943l-617 943h-155v-1173z" />
<glyph unicode="O" horiz-adv-x="1086" d="M22 588q0 244 122 412q136 187 367 187t362 -187q112 -161 112 -392v-20q-4 -242 -128 -411q-136 -187 -360 -187t-357 187q-119 169 -118 411zM163 584q0 -190 84 -323q94 -149 257 -149t258 149q85 132 85 323v4q-1 194 -86 328q-95 149 -255 149t-256 -149 q-87 -135 -87 -332z" />
<glyph unicode="P" horiz-adv-x="851" d="M83 0h142v450q242 0 392 95q162 102 169 287q0 240 -187 322q-102 45 -262 45q-106 0 -237 -20h-17v-1179zM225 600v460q59 13 119 13q46 0 92 -8q205 -34 205 -229v-8q-4 -167 -208 -214q-80 -19 -146 -19q-33 0 -62 5z" />
<glyph unicode="Q" horiz-adv-x="1071" d="M12 586q-1 -243 119 -413q132 -187 357 -187q155 0 272 93l53 -78h168l-125 182q88 126 113 300q9 62 9 122q0 106 -28 207q-46 166 -154 265q-121 108 -294 108q-232 0 -368 -187q-122 -168 -122 -412zM241 914q96 149 256 149q116 0 200 -80q76 -73 114 -198 q28 -95 28 -197q0 -26 -2 -53q-8 -134 -60 -237l-172 249h-166l-1 -1l252 -365q-83 -73 -194 -73q-164 0 -259 149q-84 133 -84 324q0 196 88 333z" />
<glyph unicode="R" horiz-adv-x="855" d="M83 1h141v462l180 2l237 -465l141 1l-260 497q251 95 261 331q0 239 -187 320q-100 45 -260 44q-105 0 -236 -19h-17v-1173zM224 598l1 457q60 13 120 13q44 0 89 -7q204 -34 204 -229v-8q-4 -165 -207 -212q-80 -19 -145 -19q-33 0 -62 5z" />
<glyph unicode="S" horiz-adv-x="767" d="M15 75q12 39 39 124q32 -21 106 -42q91 -26 170 -28h14q90 0 143 37q69 47 69 153q0 84 -66 142q-44 37 -150 83q-150 66 -219 133q-82 81 -82 193q0 72 33 138q37 73 106 117q87 54 206 54q121 0 275 -55l-41 -120q-127 40 -226 41h-7q-198 0 -197 -164q2 -85 59 -131 q37 -30 174 -89q151 -66 213 -133q71 -77 71 -197q0 -168 -94 -255q-78 -72 -214 -84q-25 -2 -51 -2q-88 0 -182 24q-106 26 -149 61z" />
<glyph unicode="T" horiz-adv-x="883" d="M1 1038h379v-1038h149v1038h379v135h-907v-135z" />
<glyph unicode="U" horiz-adv-x="1089" d="M57 475q0 -260 95 -369q103 -116 359 -116q255 0 358 116q96 109 96 369v700h-155v-737q0 -160 -54 -225q-66 -80 -245 -81q-179 1 -245 81q-54 65 -54 225v737h-155v-700z" />
<glyph unicode="V" horiz-adv-x="977" d="M2 1175l375 -1175h229l375 1175h-171l-316 -1018l-317 1018h-175z" />
<glyph unicode="W" horiz-adv-x="1617" d="M2 1175l375 -1175h229l205 645l206 -645h229l375 1175h-171l-316 -1018l-317 1018h-7l-316 -1018l-317 1018h-175z" />
<glyph unicode="X" horiz-adv-x="1015" d="M31 0h170l317 464l317 -464h170l-402 588l402 587h-170l-317 -463l-317 463h-170l402 -587z" />
<glyph unicode="Y" horiz-adv-x="810" d="M-10 1176l374 -732v-444h159v445l374 731h-159l-291 -567l-292 567h-165z" />
<glyph unicode="Z" horiz-adv-x="917" d="M-1 45q-7 17 -7 33q0 24 15 46q29 46 629 923l-585 -1v129l848 -1q-592 -869 -625 -921q-14 -22 -14 -45q0 -19 9 -39q19 -42 60 -42h6h519v-127h-782q-55 0 -73 45z" />
<glyph unicode="[" horiz-adv-x="499" d="M0 -421h411v126h-285v1782h285v125h-411v-2033z" />
<glyph unicode="\" horiz-adv-x="600" d="M0 1176l456 -1176h133l-456 1176h-133z" />
<glyph unicode="]" horiz-adv-x="598" d="M0 -300v-126h412v2039h-412v-126h287v-1787h-287z" />
<glyph unicode="^" horiz-adv-x="1106" d="M225 1338h163l114 113l113 -113h163l-276 276z" />
<glyph unicode="_" horiz-adv-x="1296" d="M0 -100v-127h1299v127h-1299z" />
<glyph unicode="`" horiz-adv-x="1024" d="M219 1235l508 -188l46 98l-478 253z" />
<glyph unicode="a" horiz-adv-x="792" d="M60 206v17q0 162 130 234q80 44 187 44q72 0 158 -20q3 19 3 37q0 59 -33 108q-53 76 -175 76q-82 0 -196 -34q-9 43 -26 99q140 39 246 39q129 0 209 -58q114 -82 114 -266v-482h-138v46q-59 -40 -140 -53q-35 -6 -70 -6q-44 0 -85 10q-80 19 -128 69q-53 56 -56 140z M176 222q0 -61 49 -97q43 -31 102 -31q70 0 111 13q55 18 101 68v200q-82 17 -146 17t-111 -17q-106 -37 -106 -153z" />
<glyph unicode="b" horiz-adv-x="916" d="M70 0h17q116 -14 212 -14q198 0 307 61q164 92 164 342q0 274 -163 359q-79 41 -208 41q-83 0 -188 -17v404h-141v-1176zM211 626q-2 0 20 6q23 7 47 12q56 12 104 12q20 0 39 -2q204 -20 204 -259q0 -227 -207 -274q-54 -12 -108 -12l-98 10z" />
<glyph unicode="c" horiz-adv-x="732" d="M60 401q0 -211 128 -318q114 -95 318 -95q81 0 176 15q-4 17 -26 121q-71 -17 -135 -17q-79 0 -148 26q-166 63 -168 268q2 207 162 269q65 26 145 26q67 0 144 -18q22 104 26 121q-95 15 -176 15q-203 0 -318 -95q-128 -107 -128 -318z" />
<glyph unicode="d" horiz-adv-x="868" d="M25 389q0 -250 164 -342q109 -61 307 -61q96 0 212 14h17v1176h-141v-404q-104 17 -188 17q-130 0 -208 -41q-163 -85 -163 -359zM170 395q0 239 204 259q19 2 39 2q48 0 104 -12q24 -5 47 -12q22 -6 20 -6l-1 -507q-49 -10 -98 -10l-108 12q-207 47 -207 274z" />
<glyph unicode="e" horiz-adv-x="802" d="M57 399q0 200 110 307q99 97 258 97q166 0 249 -112q70 -92 70 -247q0 -45 -6 -95h-543q0 -77 43 -133q38 -51 107 -79q64 -27 141 -27q76 0 142 26q7 -18 19 -58q14 -47 18 -59q-115 -29 -210 -29q-132 0 -227 55q-171 99 -171 354zM199 451h420q0 115 -66 180 q-57 56 -138 56h-6q-85 -3 -145 -62q-65 -67 -65 -174z" />
<glyph unicode="f" horiz-adv-x="565" d="M44 673v117h109q0 173 84 271q96 111 293 111v-116q-124 0 -181 -68q-54 -65 -54 -198h235v-117h-235v-673h-142v673h-109z" />
<glyph unicode="g" horiz-adv-x="882" d="M65 411q0 -258 166 -347q116 -62 397 -62v-60q-11 -163 -154 -221q-90 -36 -273 -36v-110h14q271 0 397 74q159 93 159 331v823h-17q-105 13 -194 13q-495 0 -495 -405zM209 406q0 222 210 271q59 14 119 14q45 0 90 -8l1 -530q-106 -17 -168 -17q-26 0 -44 3 q-208 33 -208 267z" />
<glyph unicode="h" horiz-adv-x="930" d="M113 0v1177h146v-462q35 47 124 72q56 16 112 16q37 0 74 -7q107 -21 170 -99q74 -91 74 -249v-448h-146v443q0 110 -64 172q-55 54 -134 54h-6q-83 -1 -140 -59q-64 -64 -64 -168v-442h-146z" />
<glyph unicode="i" horiz-adv-x="377" d="M93 996q0 38 25 64q26 27 66 27t65 -26t25 -65t-25 -64q-26 -26 -68 -26q-39 0 -64 26q-24 26 -24 64zM111 0v804h146v-804h-146z" />
<glyph unicode="j" horiz-adv-x="422" d="M-206 -318v-113q269 0 382 99q111 97 111 327v806h-141v-806q0 -180 -75 -246q-75 -67 -277 -67zM115 994q0 -42 26 -70q27 -28 70 -28q47 0 75 28q27 28 27 70q0 43 -27 71q-28 29 -71 29q-44 0 -73 -30q-27 -28 -27 -70z" />
<glyph unicode="k" horiz-adv-x="844" d="M112 0h144v312l119 98l293 -409h141l-340 492l340 303l-163 1l-390 -323v703h-144v-1177z" />
<glyph unicode="l" horiz-adv-x="379" d="M114 0v1169h145v-1169h-145z" />
<glyph unicode="m" horiz-adv-x="1478" d="M96 0h147v445q0 105 64 169q59 58 142 60h6q81 0 137 -55q64 -63 64 -173v-446h147v445q0 105 64 169q59 58 143 60h6q80 0 136 -55q64 -63 64 -173v-446h147v451q0 156 -81 251q-71 84 -187 105q-35 6 -69 6q-70 0 -137 -26q-101 -40 -139 -120q-44 77 -123 114 q-65 32 -144 32h-9q-78 -2 -142 -33q-65 -31 -89 -78v101h-147v-803z" />
<glyph unicode="n" horiz-adv-x="914" d="M96 0v799h146v-100q31 60 121 91q57 20 116 20q35 0 70 -7q107 -21 172 -102q75 -93 75 -252v-449h-146v444q0 110 -64 173q-55 54 -134 54h-6q-83 -1 -140 -59q-64 -64 -64 -169v-443h-146z" />
<glyph unicode="o" horiz-adv-x="836" d="M61 404q-1 -169 85 -285q97 -129 262 -129q166 0 263 129q86 115 86 281q0 169 -88 288q-96 129 -259 129t-260 -129q-87 -117 -89 -284zM207 403q1 117 51 199q57 90 151 90q95 0 151 -90q51 -81 51 -203q0 -115 -49 -194q-56 -90 -153 -90q-96 0 -152 90 q-50 81 -50 198z" />
<glyph unicode="p" horiz-adv-x="890" d="M100 -424h142v428q275 0 396 66q165 91 165 341q0 245 -164 339q-114 66 -320 66q-98 0 -217 -15zM242 130v551q50 11 99 11q54 0 108 -13q208 -47 209 -273q0 -185 -157 -245q-81 -31 -259 -31z" />
<glyph unicode="q" horiz-adv-x="881" d="M60 410q0 -250 166 -341q120 -66 395 -66v-428h142l-1 1225q-119 15 -217 15q-207 0 -321 -66q-164 -94 -164 -339zM206 405q0 226 208 273q54 13 108 13q49 0 99 -11v-551q-178 0 -258 31q-158 60 -157 245z" />
<glyph unicode="r" horiz-adv-x="602" d="M96 0v800h146v-101q34 67 138 97q51 15 101 15q54 0 107 -18l-47 -143q-43 22 -93 22h-4q-53 -2 -98 -28q-104 -62 -104 -201v-443h-146z" />
<glyph unicode="s" horiz-adv-x="598" d="M44 52q129 -62 235 -62q99 0 163 42q92 61 92 201q0 88 -52 143q-44 47 -146 91q-77 34 -107 59q-34 30 -34 72q0 82 111 82q72 0 145 -24l40 116q-103 37 -187 37q-118 0 -187 -71q-59 -63 -59 -152q0 -84 64 -144q47 -44 145 -87q66 -29 92 -51q38 -32 38 -79 q0 -105 -122 -105q-76 0 -182 45z" />
<glyph unicode="t" horiz-adv-x="592" d="M36 653h118v-279q0 -374 374 -374v140q-113 0 -172 58q-62 59 -62 176v279h234v143h-234v206h-140v-206h-118v-143z" />
<glyph unicode="u" horiz-adv-x="912" d="M88 350v449h146v-445q0 -110 64 -172q56 -55 135 -55h6q84 2 142 60q64 63 64 169v443h146v-800h-146v101q-31 -60 -121 -91q-59 -20 -119 -20q-34 0 -69 6q-108 22 -172 102q-76 94 -76 253z" />
<glyph unicode="v" horiz-adv-x="821" d="M22 796l315 -796h138l316 796h-151l-232 -558l-231 558h-155z" />
<glyph unicode="w" horiz-adv-x="1314" d="M22 798l316 -798h139l176 444l176 -444h139l316 798h-152l-232 -560l-232 560h-27l-232 -560l-232 560h-155z" />
<glyph unicode="x" horiz-adv-x="852" d="M41 0h176l212 283l211 -283h176l-299 400l299 400h-176l-211 -282l-212 282h-176l300 -400z" />
<glyph unicode="y" horiz-adv-x="827" d="M22 800l322 -793q-49 -127 -63 -161q-29 -69 -69 -97q-49 -33 -142 -33v-140q129 0 211 52t129 164q47 111 384 1008h-150q-133 -355 -223 -593l-244 593h-155z" />
<glyph unicode="z" horiz-adv-x="746" d="M46 34q-10 18 -10 35q0 21 14 42l444 565l-409 -1v122l651 -2q-460 -590 -481 -623q-11 -18 -1 -37q8 -13 21 -13h2h414v-122h-583q-43 0 -62 34z" />
<glyph unicode="{" horiz-adv-x="700" d="M0 595l75 53q124 88 164 239q24 89 26 281q2 215 43 300q71 143 289 143v-125q-138 0 -177 -74q-29 -55 -30 -245q-2 -191 -24 -289q-39 -169 -155 -279q123 -108 161 -280q22 -100 18 -296q-4 -227 46 -278q45 -45 161 -45v-125q-168 0 -250 83q-58 59 -74 163 q-10 63 -8 204q4 195 -19 285q-39 150 -169 235z" />
<glyph unicode="|" horiz-adv-x="503" d="M199 -425h126v2038h-126v-2038z" />
<glyph unicode="}" horiz-adv-x="790" d="M0 -299v-125q168 0 250 83q58 59 74 163q10 63 7 204q-3 195 20 285q39 151 169 236l77 50l-75 53q-124 88 -165 239q-24 89 -25 282q-2 214 -43 299q-71 144 -289 144v-125q138 0 177 -74q29 -56 30 -245q2 -191 24 -290q39 -169 155 -279q-124 -108 -161 -280 q-22 -101 -18 -297q4 -227 -46 -278q-45 -45 -161 -45z" />
<glyph unicode="~" horiz-adv-x="791" d="M0 209q-6 172 129 239q129 64 344 15q12 85 -31 154q-88 136 -369 51q-9 44 -26 99q309 86 453 -18q114 -82 114 -266v-480h-138v46q-59 -40 -139 -53q-81 -14 -154 4q-79 19 -127 69q-53 56 -56 140zM43 946q17 42 54 73q48 42 112 42q59 0 120 -28q37 -16 69 -16 q47 0 66 47l104 -40q-17 -43 -55 -75q-49 -43 -115 -43q-55 0 -114 26q-39 18 -75 18q-44 0 -63 -45zM116 226q-1 -63 48 -98q42 -31 101 -31q70 0 111 13q54 18 100 67v178q-168 35 -255 11q-103 -29 -105 -140z" />
<glyph unicode="&#xa1;" horiz-adv-x="301" d="M2 0h181l-46 887h-93zM5 1175l1 -167h167v168z" />
<glyph unicode="&#xa2;" horiz-adv-x="763" d="M0 393q0 -140 85 -245q83 -104 219 -139v-85h95v71q12 -1 23 -1q51 0 102 10l31 6l-12 29q-10 27 -22 61l-11 33l-21 -2q-26 -3 -51 -3q-18 0 -39 2v539q21 3 39 3q26 0 53 -4l26 -2l3 25q4 37 14 77l7 28l-29 3q-43 5 -83 5q-14 0 -30 -1v73h-95v-85q-145 -31 -224 -134 q-80 -104 -80 -264zM151 389q0 89 39 153q38 63 109 94v-485q-70 30 -109 91q-39 63 -39 147z" />
<glyph unicode="&#xa3;" horiz-adv-x="901" d="M0 397h226q9 -145 -213 -280l47 -107q170 47 321 9q76 -19 120 -19q114 0 277 94l-59 103q-115 -67 -187 -77q-45 -6 -123 14q-91 23 -158 23q99 112 93 240h142v92h-158q-16 51 -49 116h207v92h-256q-29 57 -37 90q-27 115 29 186q36 46 99 67q95 32 190 -2 q103 -37 145 -134l108 48q-62 140 -209 195q-137 50 -271 5q-126 -42 -182 -148q-56 -107 -24 -244q7 -29 21 -63h-99v-92h145q1 -1 2 -4q1 -2 2 -3q39 -73 54 -109h-203v-92z" />
<glyph unicode="&#xa4;" horiz-adv-x="961" d="M0 75l75 -75l120 120q91 -67 204 -67q114 0 205 67l120 -120l75 75l-120 120q67 91 67 204q0 114 -67 205l120 120l-75 75l-120 -120q-91 67 -205 67q-113 0 -204 -67l-120 120l-75 -75l120 -120q-67 -91 -67 -205q0 -113 67 -204zM159 399q0 100 71 170q70 71 169 71 q100 0 170 -71q71 -70 71 -170q0 -99 -71 -169q-70 -71 -170 -71q-99 0 -169 71q-71 70 -71 169z" />
<glyph unicode="&#xa5;" horiz-adv-x="1064" d="M0 1176l346 -704h-215v-97h230v-112h-230v-98h230v-165h158v165h236v98h-236v112h236v97h-223l354 704h-159l-283 -567l-279 567h-165z" />
<glyph unicode="&#xa6;" horiz-adv-x="506" d="M202 0h99v552h-99v-552zM202 1057h99v552h-99v-552z" />
<glyph unicode="&#xa7;" horiz-adv-x="952" d="M0 -338q43 -35 151 -62q123 -31 234 -22q138 12 217 85q95 88 95 257q0 127 -79 207q67 85 67 226q0 122 -72 199q-63 68 -215 134q-127 55 -177 100q-58 52 -58 129q0 163 217 157q109 -3 217 -39l42 121q-311 112 -486 1q-141 -88 -141 -257q0 -126 104 -214 q-92 -89 -92 -219q0 -114 83 -195q70 -68 222 -134q107 -47 151 -85q66 -57 66 -143q0 -197 -228 -192q-175 4 -279 71q-27 -86 -39 -125zM175 482q0 85 61 125q38 -19 81 -38q107 -47 151 -85q66 -57 66 -143q0 -80 -40 -128q-38 20 -84 40q-127 55 -177 99q-58 53 -58 130 z" />
<glyph unicode="&#xa8;" horiz-adv-x="1100" d="M200 1381q0 35 25 59q24 25 59 25q34 0 59 -25q24 -24 24 -59q0 -34 -24 -59q-25 -24 -59 -24q-35 0 -59 24q-25 25 -25 59zM617 1381q0 35 25 59q24 25 59 25q34 0 59 -25q24 -24 24 -59q0 -34 -24 -59q-25 -24 -59 -24q-35 0 -59 24q-25 25 -25 59z" />
<glyph unicode="&#xa9;" horiz-adv-x="1993" d="M163 597q0 -332 235 -566q234 -235 566 -235t566 235q235 234 235 566t-235 566q-234 235 -566 235t-566 -235q-235 -234 -235 -566zM290 597q0 279 198 476q197 198 476 198t476 -198q198 -197 198 -476t-198 -476q-197 -198 -476 -198t-476 198q-198 197 -198 476z M525 587q0 224 141 357q163 154 466 122q-14 -60 -19 -100q-212 24 -338 -84q-123 -103 -123 -291q0 -175 123 -276q127 -104 336 -89q22 -65 34 -95q-268 -46 -442 79q-178 127 -178 377z" />
<glyph unicode="&#xaa;" horiz-adv-x="648" />
<glyph unicode="&#xab;" horiz-adv-x="904" d="M0 394l266 -394h136l-266 394l271 402h-136zM407 394l266 -394h136l-266 394l271 402h-136z" />
<glyph unicode="&#xac;" horiz-adv-x="1014" d="M-4 371h777v-218h128v346h-905v-128z" />
<glyph unicode="&#xad;" horiz-adv-x="1159" d="M144 503h831v125h-831v-125z" />
<glyph unicode="&#xae;" horiz-adv-x="1674" d="M0 603q0 -332 235 -567t567 -235q331 0 566 235t235 567t-235 566q-235 235 -566 235q-332 0 -567 -235q-235 -234 -235 -566zM126 603q0 279 198 477t478 198q279 0 477 -198t198 -477q0 -280 -198 -478t-477 -198q-280 0 -478 198t-198 478zM570 132h112v365l141 1 l178 -366l111 1l-195 391q198 75 205 262q0 188 -147 252q-132 58 -392 20h-13v-926zM681 604l1 360q83 18 165 4q164 -27 161 -186q-3 -131 -163 -168q-95 -22 -164 -10z" />
<glyph unicode="&#xaf;" horiz-adv-x="1296" d="M0 1304h1299v127h-1299v-127z" />
<glyph unicode="&#xb0;" horiz-adv-x="678" d="M-1 1048q0 -104 73 -177t176 -73q104 0 177 73t73 177q0 103 -73 176t-177 73q-103 0 -176 -73t-73 -176zM98 1048q0 62 44 106q44 43 106 43q63 0 106 -43q44 -44 44 -106q0 -63 -44 -107q-43 -43 -106 -43q-62 0 -106 43q-44 44 -44 107z" />
<glyph unicode="&#xb1;" horiz-adv-x="1014" d="M1 666v140h350v369l1 1h139v-370h349l1 -1v-139h-350v-370h-140v370h-350zM4 82h831v125h-831v-125z" />
<glyph unicode="&#xb2;" horiz-adv-x="1014" />
<glyph unicode="&#xb3;" horiz-adv-x="1014" />
<glyph unicode="&#xb4;" horiz-adv-x="1106" d="M279 1411l370 196l59 -126l-394 -146z" />
<glyph unicode="&#xb5;" horiz-adv-x="868" d="M0 -421h146v542q74 -105 189 -105q114 0 198 105v-116h145v798h-145v-477q0 -75 -61 -127q-56 -48 -133 -54q-80 -7 -133 36q-60 49 -60 145v477h-146v-1224z" />
<glyph unicode="&#xb6;" horiz-adv-x="1024" d="M3 864q14 -139 107 -196q75 -46 230 -51v-617h141v1077h117v-1077h139v1077h116v98h-512q-371 0 -338 -311z" />
<glyph unicode="&#xb7;" horiz-adv-x="508" d="M165 526h200v200h-200v-200z" />
<glyph unicode="&#xb8;" horiz-adv-x="1024" d="M299 -336l85 72q29 -35 67 -48q33 -11 61 -1q34 12 36 50q1 39 -25 58q-16 12 -41 15l-50 5v50v134h111v-90q51 -19 81 -59q37 -49 35 -117q-2 -53 -31 -93q-30 -41 -79 -58q-30 -11 -63 -11q-51 0 -100 24q-50 25 -87 69z" />
<glyph unicode="&#xb9;" horiz-adv-x="1014" />
<glyph unicode="&#xba;" horiz-adv-x="718" />
<glyph unicode="&#xbb;" horiz-adv-x="944" d="M101 176v37l205 266l-205 266v37h14l342 -303l-342 -303h-14zM414 176v37l205 266l-205 266v37h14l342 -303l-342 -303h-14z" />
<glyph unicode="&#xbc;" horiz-adv-x="1539" d="M0 1094l193 81h121v-731h-143v581l-122 -39zM324 0h131l450 1159h-132zM750 243q-20 41 7 75q15 20 300 425h143v-415h95v-126h-95v-194h-142v194h-242q-46 0 -66 41zM913 328h145v207z" />
<glyph unicode="&#xbd;" horiz-adv-x="1545" d="M0 1092l193 82h121v-730h-143v579l-122 -39zM323 0h132l449 1158h-132zM840 674l24 11q98 47 186 47q80 0 141 -38q60 -38 87 -105q31 -76 6 -161q-26 -86 -100 -157l-132 -132h255v-129h-393q-49 0 -68 47q-17 43 18 77l214 206q56 56 73 114q14 48 -2 86 q-25 63 -110 63q-56 0 -123 -31l-25 -11z" />
<glyph unicode="&#xbe;" horiz-adv-x="1610" d="M0 492l7 18q20 57 20 55l9 31l29 -13q52 -25 124 -25q125 0 125 104q0 42 -19 70q-24 33 -68 35h-82v123h83q34 0 53 22q23 28 15 78q-9 60 -79 60q-54 0 -138 -31l-25 -10l-10 25q-11 25 -26 56l-13 27l27 11q108 47 195 47q82 0 134 -40q53 -40 70 -115 q27 -122 -58 -189q90 -60 90 -171q0 -109 -64 -168q-65 -60 -183 -60q-62 0 -125 16q-56 15 -75 31zM400 0h133l455 1175h-133zM832 246q-20 42 7 77q14 20 304 430h144v-421h97v-128h-97v-196h-143v196h-246q-46 0 -66 42zM997 332h147l-1 211z" />
<glyph unicode="&#xbf;" horiz-adv-x="684" d="M5 -129q-12 117 33 196q38 68 157 162q94 75 123 120q36 58 38 160h88q1 -132 -30 -207q-37 -89 -139 -158q-150 -103 -127 -248q12 -74 60 -115q42 -36 106 -40q130 -9 231 89q45 -39 82 -80q-58 -74 -159 -108q-98 -33 -200 -20q-106 14 -175 75q-77 67 -88 174z M317 628v165h164v-165h-164z" />
<glyph unicode="&#xc0;" horiz-adv-x="1104" d="M1 0h158l121 366h408l123 -366h163l-396 1176h-196zM280 1482l394 -146l35 76l-370 196zM313 490l165 555l178 -555h-343z" />
<glyph unicode="&#xc1;" horiz-adv-x="1106" d="M0 0h158l121 366h408l123 -366h163l-396 1176h-196zM279 1411l370 196l59 -126l-394 -146zM312 490l165 555l178 -555h-343z" />
<glyph unicode="&#xc2;" horiz-adv-x="1106" d="M0 0h158l121 366h408l123 -366h163l-396 1176h-196zM225 1338h163l114 113l113 -113h163l-276 276zM312 490l165 555l178 -555h-343z" />
<glyph unicode="&#xc3;" horiz-adv-x="1106" d="M0 0h158l121 366h408l123 -366h163l-396 1176h-196zM224 1384q17 42 54 73q48 42 112 42q59 0 120 -28q37 -16 69 -16q47 0 66 47l104 -40q-17 -43 -55 -75q-49 -43 -115 -43q-55 0 -114 26q-39 18 -75 18q-44 0 -63 -45zM312 490l165 555l178 -555h-343z" />
<glyph unicode="&#xc4;" horiz-adv-x="1100" d="M0 0h158l121 366h408l123 -366h163l-396 1176h-196zM200 1381q0 35 25 59q24 25 59 25q34 0 59 -25q24 -24 24 -59q0 -34 -24 -59q-25 -24 -59 -24q-35 0 -59 24q-25 25 -25 59zM312 490l165 555l178 -555h-343zM617 1381q0 35 25 59q24 25 59 25q34 0 59 -25 q24 -24 24 -59q0 -34 -24 -59q-25 -24 -59 -24q-35 0 -59 24q-25 25 -25 59z" />
<glyph unicode="&#xc5;" horiz-adv-x="1054" d="M0 0h158l121 366h408l123 -366h163l-396 1176h-196zM312 490l165 555l178 -555h-343zM335 1381q0 -64 48 -108q49 -45 118 -45t118 45q48 44 48 108q0 63 -48 108q-49 45 -118 45t-118 -45q-48 -45 -48 -108zM447 1381q0 27 16 46t38 19q23 0 38 -19q16 -19 16 -46 t-16 -47q-15 -19 -38 -19q-22 0 -38 19q-16 20 -16 47z" />
<glyph unicode="&#xc6;" horiz-adv-x="1300" d="M0 0h158l121 363h424l123 -363h211v1h221v128h-313l-120 348h368v126h-411l-153 445h629v128l-854 -1zM312 487l180 556l178 -556h-358z" />
<glyph unicode="&#xc7;" horiz-adv-x="928" d="M0 581q0 -141 53 -261q56 -127 163 -208q250 -189 691 -85q-22 80 -32 124q-327 -82 -520 35q-193 116 -194 399q1 282 194 399q193 116 520 34q10 44 32 125q-441 103 -691 -89q-107 -82 -163 -210q-53 -121 -53 -263zM409 -336l85 72q29 -35 67 -48q33 -11 61 -1 q34 12 36 50q1 39 -25 58q-16 12 -41 15l-50 5v50v134h111v-90q51 -19 81 -59q37 -49 35 -117q-2 -53 -31 -93q-30 -41 -79 -58q-30 -11 -63 -11q-51 0 -100 24q-50 25 -87 69z" />
<glyph unicode="&#xc8;" horiz-adv-x="754" d="M0 0h697v127h-543v352l436 2v123h-436v444h543v128h-697v-1176zM118 1482l394 -146l35 76l-370 196z" />
<glyph unicode="&#xc9;" horiz-adv-x="754" d="M0 0h697v127h-543v352l436 2v123h-436v444h543v128h-697v-1176zM126 1411l370 196l59 -126l-394 -146z" />
<glyph unicode="&#xca;" horiz-adv-x="754" d="M0 0h697v127h-543v352l436 2v123h-436v444h543v128h-697v-1176zM48 1338h163l114 113l113 -113h163l-276 276z" />
<glyph unicode="&#xcb;" horiz-adv-x="754" d="M0 0h697v127h-543v352l436 2v123h-436v444h543v128h-697v-1176zM37 1381q0 35 25 59q24 25 59 25q34 0 59 -25q24 -24 24 -59q0 -34 -24 -59q-25 -24 -59 -24q-35 0 -59 24q-25 25 -25 59zM454 1381q0 35 25 59q24 25 59 25q34 0 59 -25q24 -24 24 -59q0 -34 -24 -59 q-25 -24 -59 -24q-35 0 -59 24q-25 25 -25 59z" />
<glyph unicode="&#xcc;" horiz-adv-x="367" d="M-125 1482l394 -146l35 76l-370 196zM0 0v1174h153v-1174h-153z" />
<glyph unicode="&#xcd;" horiz-adv-x="367" d="M-98 1411l370 196l59 -126l-394 -146zM0 0v1174h153v-1174h-153z" />
<glyph unicode="&#xce;" horiz-adv-x="367" d="M-181 1338h163l114 113l113 -113h163l-276 276zM0 0v1174h153v-1174h-153z" />
<glyph unicode="&#xcf;" horiz-adv-x="429" d="M-159 1381q0 35 25 59q24 25 59 25q34 0 59 -25q24 -24 24 -59q0 -34 -24 -59q-25 -24 -59 -24q-35 0 -59 24q-25 25 -25 59zM60 0v1174h153v-1174h-153zM258 1381q0 35 25 59q24 25 59 25q34 0 59 -25q24 -24 24 -59q0 -34 -24 -59q-25 -24 -59 -24q-35 0 -59 24 q-25 25 -25 59z" />
<glyph unicode="&#xd0;" horiz-adv-x="1236" d="M0 523h137v-519q117 -14 262 -14q264 0 407 86q243 146 243 547q0 361 -225 495q-134 80 -380 80q-160 0 -307 -26v-524h-137v-125zM282 121v402h315v125h-315v413q68 16 169 16q225 0 345 -125q115 -119 114 -334q0 -241 -125 -373t-357 -132q-98 0 -146 8z" />
<glyph unicode="&#xd1;" horiz-adv-x="957" d="M0 0h132v956l630 -956h142v1173h-132v-943l-617 943h-155v-1173zM161 1384q17 42 54 73q48 42 112 42q59 0 120 -28q37 -16 69 -16q47 0 66 47l104 -40q-17 -43 -55 -75q-49 -43 -115 -43q-55 0 -114 26q-39 18 -75 18q-44 0 -63 -45z" />
<glyph unicode="&#xd2;" d="M0 588q1 244 122 412q136 187 367 187t362 -187q118 -168 113 -412q-5 -242 -128 -411q-137 -187 -361 -187t-356 187q-120 169 -119 411zM141 588q-1 -193 84 -327q95 -149 258 -149t258 149q85 134 84 327q0 194 -86 328q-95 149 -255 149t-255 -149q-86 -134 -88 -328 zM279 1482l394 -146l35 76l-370 196z" />
<glyph unicode="&#xd3;" d="M0 588q1 244 122 412q136 187 367 187t362 -187q118 -168 113 -412q-5 -242 -128 -411q-137 -187 -361 -187t-356 187q-120 169 -119 411zM141 588q-1 -193 84 -327q95 -149 258 -149t258 149q85 134 84 327q0 194 -86 328q-95 149 -255 149t-255 -149q-86 -134 -88 -328 zM279 1411l370 196l59 -126l-394 -146z" />
<glyph unicode="&#xd4;" d="M0 588q1 244 122 412q136 187 367 187t362 -187q118 -168 113 -412q-5 -242 -128 -411q-137 -187 -361 -187t-356 187q-120 169 -119 411zM141 588q-1 -193 84 -327q95 -149 258 -149t258 149q85 134 84 327q0 194 -86 328q-95 149 -255 149t-255 -149q-86 -134 -88 -328 zM228 1338h163l114 113l113 -113h163l-276 276z" />
<glyph unicode="&#xd5;" d="M0 588q1 244 122 412q136 187 367 187t362 -187q118 -168 113 -412q-5 -242 -128 -411q-137 -187 -361 -187t-356 187q-120 169 -119 411zM141 588q-1 -193 84 -327q95 -149 258 -149t258 149q85 134 84 327q0 194 -86 328q-95 149 -255 149t-255 -149q-86 -134 -88 -328 zM200 1384q17 42 54 73q48 42 112 42q59 0 120 -28q37 -16 69 -16q47 0 66 47l104 -40q-17 -43 -55 -75q-49 -43 -115 -43q-55 0 -114 26q-39 18 -75 18q-44 0 -63 -45z" />
<glyph unicode="&#xd6;" d="M0 588q1 244 122 412q136 187 367 187t362 -187q118 -168 113 -412q-5 -242 -128 -411q-137 -187 -361 -187t-356 187q-120 169 -119 411zM141 588q-1 -193 84 -327q95 -149 258 -149t258 149q85 134 84 327q0 194 -86 328q-95 149 -255 149t-255 -149q-86 -134 -88 -328 zM200 1381q0 35 25 59q24 25 59 25q34 0 59 -25q24 -24 24 -59q0 -34 -24 -59q-25 -24 -59 -24q-35 0 -59 24q-25 25 -25 59zM617 1381q0 35 25 59q24 25 59 25q34 0 59 -25q24 -24 24 -59q0 -34 -24 -59q-25 -24 -59 -24q-35 0 -59 24q-25 25 -25 59z" />
<glyph unicode="&#xd7;" horiz-adv-x="904" d="M55 316l267 257l-243 252l101 97l243 -252l266 256h1l97 -100l-267 -257l242 -251v-2l-100 -96l-243 252l-267 -257z" />
<glyph unicode="&#xd8;" horiz-adv-x="1049" d="M4 1h170l45 67q114 -88 265 -88q173 0 298 113q113 102 165 274q50 165 29 339q-22 179 -112 305l114 166h-170l-43 -64q-114 85 -267 85q-178 0 -303 -112q-113 -101 -163 -273q-47 -162 -25 -336q24 -179 113 -306zM146 538q-8 133 28 254q39 126 116 200q86 82 203 82 q111 0 194 -74l-481 -703q-52 105 -60 241zM295 178l481 703q53 -105 63 -240q9 -134 -26 -254q-38 -127 -116 -201q-86 -82 -205 -82q-114 0 -197 74z" />
<glyph unicode="&#xd9;" horiz-adv-x="1032" d="M0 475q0 -260 95 -369q103 -116 359 -116q255 0 358 116q96 109 96 369v700h-155v-737q0 -160 -54 -225q-66 -80 -245 -81q-179 1 -245 81q-54 65 -54 225v737h-155v-700zM243 1482l394 -146l35 76l-370 196z" />
<glyph unicode="&#xda;" horiz-adv-x="1032" d="M0 475q0 -260 95 -369q103 -116 359 -116q255 0 358 116q96 109 96 369v700h-155v-737q0 -160 -54 -225q-66 -80 -245 -81q-179 1 -245 81q-54 65 -54 225v737h-155v-700zM241 1411l370 196l59 -126l-394 -146z" />
<glyph unicode="&#xdb;" horiz-adv-x="1032" d="M0 475q0 -260 95 -369q103 -116 359 -116q255 0 358 116q96 109 96 369v700h-155v-737q0 -160 -54 -225q-66 -80 -245 -81q-179 1 -245 81q-54 65 -54 225v737h-155v-700zM156 1338h163l114 113l113 -113h163l-276 276z" />
<glyph unicode="&#xdc;" horiz-adv-x="1032" d="M0 475q0 -260 95 -369q103 -116 359 -116q255 0 358 116q96 109 96 369v700h-155v-737q0 -160 -54 -225q-66 -80 -245 -81q-179 1 -245 81q-54 65 -54 225v737h-155v-700zM150 1381q0 35 25 59q24 25 59 25q34 0 59 -25q24 -24 24 -59q0 -34 -24 -59q-25 -24 -59 -24 q-35 0 -59 24q-25 25 -25 59zM567 1381q0 35 25 59q24 25 59 25q34 0 59 -25q24 -24 24 -59q0 -34 -24 -59q-25 -24 -59 -24q-35 0 -59 24q-25 25 -25 59z" />
<glyph unicode="&#xdd;" horiz-adv-x="932" d="M0 1176l374 -732v-444h159v445l374 731h-159l-291 -567l-292 567h-165zM241 1411l370 196l59 -126l-394 -146z" />
<glyph unicode="&#xde;" horiz-adv-x="702" d="M0 0h146v224q220 15 345 122q110 94 110 222q0 129 -110 224q-125 107 -345 123v262h-146v-1177zM146 349v440q155 -13 246 -80q84 -61 84 -141q0 -79 -84 -140q-91 -65 -246 -79z" />
<glyph unicode="&#xdf;" horiz-adv-x="798" d="M0 1v1172q667 135 667 -278q0 -122 -90 -209q-61 -60 -62 -60q-28 -33 -28 -68q0 -33 32 -69q14 -15 72 -63q107 -91 117 -177q19 -294 -372 -257v112q252 -44 235 138q-5 46 -36 87q-17 21 -67 67q-92 85 -92 166q0 54 25 96q15 25 56 67q81 84 81 170q0 126 -89 171 q-94 47 -295 7v-650v-423z" />
<glyph unicode="&#xe0;" horiz-adv-x="791" d="M0 206q-6 175 130 251q133 73 346 24q13 81 -31 145q-87 127 -370 42q-9 43 -26 99q310 87 455 -19q114 -82 114 -266v-482h-139v46q-58 -40 -139 -53q-81 -14 -156 4q-79 19 -127 69q-54 56 -57 140zM117 224q-1 -63 49 -99q42 -31 102 -31q70 0 111 13q54 18 100 68 v200q-162 34 -257 0q-104 -37 -105 -151zM126 1103l396 -147l35 76l-372 198z" />
<glyph unicode="&#xe1;" horiz-adv-x="791" d="M0 206q-6 175 130 251q133 73 346 24q13 81 -31 145q-87 127 -370 42q-9 43 -26 99q310 87 455 -19q114 -82 114 -266v-482h-139v46q-58 -40 -139 -53q-81 -14 -156 4q-79 19 -127 69q-54 56 -57 140zM117 224q-1 -63 49 -99q42 -31 102 -31q70 0 111 13q54 18 100 68 v200q-162 34 -257 0q-104 -37 -105 -151zM125 1063l372 197l60 -127l-396 -147z" />
<glyph unicode="&#xe2;" horiz-adv-x="791" d="M0 206q-6 175 130 251q133 73 346 24q13 81 -31 145q-87 127 -370 42q-9 43 -26 99q310 87 455 -19q114 -82 114 -266v-482h-139v46q-58 -40 -139 -53q-81 -14 -156 4q-79 19 -127 69q-54 56 -57 140zM48 901h163l114 113l113 -113h163l-276 276zM117 224q-1 -63 49 -99 q42 -31 102 -31q70 0 111 13q54 18 100 68v200q-162 34 -257 0q-104 -37 -105 -151z" />
<glyph unicode="&#xe3;" horiz-adv-x="791" d="M0 206q-6 175 130 251q133 73 346 24q13 81 -31 145q-87 127 -370 42q-9 43 -26 99q310 87 455 -19q114 -82 114 -266v-482h-139v46q-58 -40 -139 -53q-81 -14 -156 4q-79 19 -127 69q-54 56 -57 140zM43 946q17 42 54 73q48 42 112 42q59 0 120 -28q37 -16 69 -16 q47 0 66 47l104 -40q-17 -43 -55 -75q-49 -43 -115 -43q-55 0 -114 26q-39 18 -75 18q-44 0 -63 -45zM117 224q-1 -63 49 -99q42 -31 102 -31q70 0 111 13q54 18 100 68v200q-162 34 -257 0q-104 -37 -105 -151z" />
<glyph unicode="&#xe4;" horiz-adv-x="791" d="M0 206q-6 175 130 251q133 73 346 24q13 81 -31 145q-87 127 -370 42q-9 43 -26 99q310 87 455 -19q114 -82 114 -266v-482h-139v46q-58 -40 -139 -53q-81 -14 -156 4q-79 19 -127 69q-54 56 -57 140zM0 991q0 34 25 59t61 25q35 0 60 -25t25 -59q0 -35 -25 -60t-60 -25 q-36 0 -61 25t-25 60zM117 224q-1 -63 49 -99q42 -31 102 -31q70 0 111 13q54 18 100 68v200q-162 34 -257 0q-104 -37 -105 -151zM429 991q0 34 25 59t60 25q36 0 61 -25t25 -59q0 -35 -25 -60t-61 -25q-35 0 -60 25t-25 60z" />
<glyph unicode="&#xe5;" horiz-adv-x="782" d="M0 206q-6 175 130 251q133 73 346 24q13 81 -31 145q-87 127 -370 42q-9 43 -26 99q310 87 455 -19q114 -82 114 -266v-482h-139v46q-58 -40 -139 -53q-81 -14 -156 4q-79 19 -127 69q-54 56 -57 140zM117 224q-1 -63 49 -99q42 -31 102 -31q70 0 111 13q54 18 100 68 v200q-162 34 -257 0q-104 -37 -105 -151zM141 1020q0 -63 49 -108q48 -44 116 -44q69 0 117 44q49 45 49 108t-49 107q-48 45 -117 45q-68 0 -116 -45q-49 -44 -49 -107zM252 1020q0 27 16 46t38 19q23 0 39 -19q15 -19 15 -46t-15 -46q-16 -19 -39 -19q-22 0 -38 19t-16 46 z" />
<glyph unicode="&#xe6;" horiz-adv-x="1268" d="M0 209q3 -84 57 -140q47 -50 127 -69q74 -18 154 -4q81 13 140 53q48 39 98 34q24 -2 39 -11q170 -128 474 -52q-4 13 -18 59q-11 41 -19 58q-66 -26 -142 -26q-76 1 -141 27q-68 28 -107 79q-43 56 -42 133h542q26 223 -64 342q-83 111 -249 111q-182 0 -282 -124 q-57 90 -173 116q-135 30 -345 -28q17 -56 26 -99q281 85 368 -42q44 -64 31 -144q-212 49 -344 -24q-136 -75 -130 -249zM116 226q2 113 105 150q94 34 257 1v-200q-46 -49 -101 -67q-41 -13 -110 -13q-59 0 -102 30q-50 36 -49 99zM623 452q0 107 66 173q59 60 144 62 q86 3 144 -55q66 -65 66 -180h-420z" />
<glyph unicode="&#xe7;" horiz-adv-x="702" d="M0 393q0 195 115 305t318 110q41 0 84 -4l30 -3l-7 -29q-10 -38 -15 -77l-3 -26l-25 3q-28 3 -54 3q-134 0 -211 -75q-78 -75 -78 -204q0 -123 79 -197q78 -74 210 -74q25 0 52 3l21 3l11 -34q12 -35 22 -62l12 -29l-31 -6q-52 -10 -103 -10q-182 0 -305 115 q-122 116 -122 288zM228 -336l85 72q29 -35 67 -48q33 -11 61 -1q34 12 36 50q1 39 -25 58q-16 12 -41 15l-50 5v50v134h111v-90q51 -19 81 -59q37 -49 35 -117q-2 -53 -31 -93q-30 -41 -79 -58q-30 -11 -63 -11q-51 0 -100 24q-50 25 -87 69z" />
<glyph unicode="&#xe8;" horiz-adv-x="797" d="M0 399q0 200 110 307q99 97 258 97q166 0 249 -112q90 -119 64 -342h-543q0 -77 43 -133q38 -51 107 -79q64 -27 141 -27q76 0 142 26q7 -18 19 -58q14 -47 18 -59q-273 -69 -437 26q-171 99 -171 354zM126 1103l396 -147l35 76l-372 198zM142 451h420q0 115 -66 180 q-59 58 -144 56q-85 -3 -145 -62q-65 -67 -65 -174z" />
<glyph unicode="&#xe9;" horiz-adv-x="797" d="M0 399q0 200 110 307q99 97 258 97q166 0 249 -112q90 -119 64 -342h-543q0 -77 43 -133q38 -51 107 -79q64 -27 141 -27q76 0 142 26q7 -18 19 -58q14 -47 18 -59q-273 -69 -437 26q-171 99 -171 354zM125 1063l372 197l60 -127l-396 -147zM142 451h420q0 115 -66 180 q-59 58 -144 56q-85 -3 -145 -62q-65 -67 -65 -174z" />
<glyph unicode="&#xea;" horiz-adv-x="833" d="M0 399q0 200 110 307q99 97 258 97q166 0 249 -112q90 -119 64 -342h-543q0 -77 43 -133q38 -51 107 -79q64 -27 141 -27q76 0 142 26q7 -18 19 -58q14 -47 18 -59q-273 -69 -437 26q-171 99 -171 354zM78 901h163l114 113l113 -113h163l-276 276zM142 451h420 q0 115 -66 180q-59 58 -144 56q-85 -3 -145 -62q-65 -67 -65 -174z" />
<glyph unicode="&#xeb;" horiz-adv-x="797" d="M0 399q0 200 110 307q99 97 258 97q166 0 249 -112q90 -119 64 -342h-543q0 -77 43 -133q38 -51 107 -79q64 -27 141 -27q76 0 142 26q7 -18 19 -58q14 -47 18 -59q-273 -69 -437 26q-171 99 -171 354zM43 991q0 34 25 59t61 25q35 0 60 -25t25 -59q0 -35 -25 -60 t-60 -25q-36 0 -61 25t-25 60zM142 451h420q0 115 -66 180q-59 58 -144 56q-85 -3 -145 -62q-65 -67 -65 -174zM472 991q0 34 25 59t60 25q36 0 61 -25t25 -59q0 -35 -25 -60t-61 -25q-35 0 -60 25t-25 60z" />
<glyph unicode="&#xec;" horiz-adv-x="399" d="M-171 1103l396 -147l35 76l-372 198zM18 0v804h146v-804h-146z" />
<glyph unicode="&#xed;" horiz-adv-x="403" d="M-22 1063l372 197l60 -127l-396 -147zM19 0v804h146v-804h-146z" />
<glyph unicode="&#xee;" horiz-adv-x="400" d="M-177 901h163l114 113l113 -113h163l-276 276zM19 0v804h146v-804h-146z" />
<glyph unicode="&#xef;" horiz-adv-x="402" d="M-198 991q0 34 25 59t61 25q35 0 60 -25t25 -59q0 -35 -25 -60t-60 -25q-36 0 -61 25t-25 60zM28 0h148v799h-148v-799zM231 991q0 34 25 59t60 25q36 0 61 -25t25 -59q0 -35 -25 -60t-61 -25q-35 0 -60 25t-25 60z" />
<glyph unicode="&#xf0;" horiz-adv-x="853" d="M0 401q-1 -167 86 -283q97 -128 264 -128q204 0 299 185q87 169 33 364q-20 89 -55 168q-41 91 -101 173q-52 68 -120 131l84 76l-56 61l-92 -83q-53 42 -110 77l-53 -84q43 -29 85 -64l-75 -68l56 -62l82 75q62 -60 107 -125q2 -3 5 -7q3 -5 4 -7q-44 12 -92 12 q-164 0 -262 -128q-88 -116 -89 -283zM142 354q-26 121 7 217q37 106 134 128q98 23 177 -58q71 -72 99 -193t-5 -216q-37 -107 -136 -129q-100 -23 -178 57q-71 72 -98 194z" />
<glyph unicode="&#xf1;" horiz-adv-x="842" d="M0 0v799h146v-100q31 60 121 91q91 32 186 13q107 -21 172 -102q75 -93 75 -252v-449h-146v444q0 110 -64 173q-57 56 -140 54q-83 -1 -140 -59q-64 -64 -64 -169v-443h-146zM122 946q17 42 54 73q48 42 112 42q59 0 120 -28q37 -16 69 -16q47 0 66 47l104 -40 q-17 -43 -55 -75q-49 -43 -115 -43q-55 0 -114 26q-39 18 -75 18q-44 0 -63 -45z" />
<glyph unicode="&#xf2;" horiz-adv-x="853" d="M0 404q-1 -169 85 -285q96 -129 262 -129t263 129q87 116 86 285q-1 167 -88 284q-97 129 -259 129q-163 0 -260 -129q-88 -117 -89 -284zM126 1103l396 -147l35 76l-372 198zM146 403q0 117 51 199q56 90 151 90q94 0 151 -90q51 -81 51 -198q1 -118 -50 -199 q-56 -90 -152 -90t-152 90q-51 81 -50 198z" />
<glyph unicode="&#xf3;" horiz-adv-x="853" d="M0 404q-1 -169 85 -285q96 -129 262 -129t263 129q87 116 86 285q-1 167 -88 284q-97 129 -259 129q-163 0 -260 -129q-88 -117 -89 -284zM125 1063l372 197l60 -127l-396 -147zM146 403q0 117 51 199q56 90 151 90q94 0 151 -90q51 -81 51 -198q1 -118 -50 -199 q-56 -90 -152 -90t-152 90q-51 81 -50 198z" />
<glyph unicode="&#xf4;" horiz-adv-x="853" d="M0 404q-1 -169 85 -285q96 -129 262 -129t263 129q87 116 86 285q-1 167 -88 284q-97 129 -259 129q-163 0 -260 -129q-88 -117 -89 -284zM88 901h163l114 113l113 -113h163l-276 276zM146 403q0 117 51 199q56 90 151 90q94 0 151 -90q51 -81 51 -198q1 -118 -50 -199 q-56 -90 -152 -90t-152 90q-51 81 -50 198z" />
<glyph unicode="&#xf5;" horiz-adv-x="853" d="M0 404q-1 -169 85 -285q96 -129 262 -129t263 129q87 116 86 285q-1 167 -88 284q-97 129 -259 129q-163 0 -260 -129q-88 -117 -89 -284zM93 946q17 42 54 73q48 42 112 42q59 0 120 -28q37 -16 69 -16q47 0 66 47l104 -40q-17 -43 -55 -75q-49 -43 -115 -43 q-55 0 -114 26q-39 18 -75 18q-44 0 -63 -45zM146 403q0 117 51 199q56 90 151 90q94 0 151 -90q51 -81 51 -198q1 -118 -50 -199q-56 -90 -152 -90t-152 90q-51 81 -50 198z" />
<glyph unicode="&#xf6;" horiz-adv-x="853" d="M0 404q-1 -169 85 -285q96 -129 262 -129t263 129q87 116 86 285q-1 167 -88 284q-97 129 -259 129q-163 0 -260 -129q-88 -117 -89 -284zM61 991q0 34 25 59t61 25q35 0 60 -25t25 -59q0 -35 -25 -60t-60 -25q-36 0 -61 25t-25 60zM146 403q0 117 51 199q56 90 151 90 q94 0 151 -90q51 -81 51 -198q1 -118 -50 -199q-56 -90 -152 -90t-152 90q-51 81 -50 198zM490 991q0 34 25 59t60 25q36 0 61 -25t25 -59q0 -35 -25 -60t-61 -25q-35 0 -60 25t-25 60z" />
<glyph unicode="&#xf7;" horiz-adv-x="997" d="M4 503h831v125h-831v-125zM336 149h167v166h-167v-166zM336 814v166h167v-166h-167z" />
<glyph unicode="&#xf8;" horiz-adv-x="781" d="M1 -1h159l20 30q76 -45 172 -45q125 0 213 75q80 68 116 184q34 110 19 228q-16 122 -78 210l82 121h-160l-19 -28q-76 47 -172 47q-123 0 -212 -76q-80 -69 -117 -185q-34 -111 -20 -230q16 -122 78 -210zM170 539q24 70 68 111q49 44 114 45q55 0 99 -32l-278 -409 q-53 140 -3 285zM256 140l276 408q52 -141 3 -284q-23 -70 -68 -109q-48 -44 -115 -45q-54 0 -96 30z" />
<glyph unicode="&#xf9;" horiz-adv-x="886" d="M0 350v449h146v-445q0 -110 64 -172q58 -57 141 -55q84 2 142 60q64 63 64 169v443h146v-800h-146v101q-31 -60 -121 -91q-92 -32 -188 -14q-108 22 -172 102q-76 94 -76 253zM126 1103l396 -147l35 76l-372 198z" />
<glyph unicode="&#xfa;" horiz-adv-x="871" d="M0 350v449h146v-445q0 -110 64 -172q58 -57 141 -55q84 2 142 60q64 63 64 169v443h146v-800h-146v101q-31 -60 -121 -91q-92 -32 -188 -14q-108 22 -172 102q-76 94 -76 253zM125 1063l372 197l60 -127l-396 -147z" />
<glyph unicode="&#xfb;" horiz-adv-x="892" d="M0 350v449h146v-445q0 -110 64 -172q58 -57 141 -55q84 2 142 60q64 63 64 169v443h146v-800h-146v101q-31 -60 -121 -91q-92 -32 -188 -14q-108 22 -172 102q-76 94 -76 253zM78 901h163l114 113l113 -113h163l-276 276z" />
<glyph unicode="&#xfc;" horiz-adv-x="830" d="M0 350v449h146v-445q0 -110 64 -172q58 -57 141 -55q84 2 142 60q64 63 64 169v443h146v-800h-146v101q-31 -60 -121 -91q-92 -32 -188 -14q-108 22 -172 102q-76 94 -76 253zM40 991q0 34 25 59t61 25q35 0 60 -25t25 -59q0 -35 -25 -60t-60 -25q-36 0 -61 25t-25 60z M469 991q0 34 25 59t60 25q36 0 61 -25t25 -59q0 -35 -25 -60t-61 -25q-35 0 -60 25t-25 60z" />
<glyph unicode="&#xfd;" horiz-adv-x="804" d="M0 800l322 -793q-49 -127 -63 -161q-29 -69 -69 -97q-49 -33 -142 -33v-140q129 0 211 52t129 164q47 111 384 1008h-150q-133 -355 -223 -593l-244 593h-155zM125 1063l372 197l60 -127l-396 -147z" />
<glyph unicode="&#xfe;" horiz-adv-x="738" d="M0 -422h147v427q216 16 346 150q111 114 111 249q0 136 -111 249q-129 132 -346 148v227h-147v-1450zM147 132v543q151 -13 247 -105q84 -79 84 -166q0 -86 -84 -167q-97 -93 -247 -105z" />
<glyph unicode="&#xff;" horiz-adv-x="804" d="M0 800l322 -793q-49 -127 -63 -161q-29 -69 -69 -97q-49 -33 -142 -33v-140q129 0 211 52t129 164q47 111 384 1008h-150q-133 -355 -223 -593l-244 593h-155zM70 991q0 34 25 59t61 25q35 0 60 -25t25 -59q0 -35 -25 -60t-60 -25q-36 0 -61 25t-25 60zM499 991 q0 34 25 59t60 25q36 0 61 -25t25 -59q0 -35 -25 -60t-61 -25q-35 0 -60 25t-25 60z" />
<glyph unicode="&#x2c6;" horiz-adv-x="697" d="M48 1338h163l114 113l113 -113h163l-276 276z" />
<glyph unicode="&#x2dc;" horiz-adv-x="793" d="M95 1384q17 42 54 73q48 42 112 42q59 0 120 -28q37 -16 69 -16q47 0 66 47l104 -40q-17 -43 -55 -75q-49 -43 -115 -43q-55 0 -114 26q-39 18 -75 18q-44 0 -63 -45z" />
<glyph unicode="&#x2000;" horiz-adv-x="830" />
<glyph unicode="&#x2001;" horiz-adv-x="1661" />
<glyph unicode="&#x2002;" horiz-adv-x="830" />
<glyph unicode="&#x2003;" horiz-adv-x="1661" />
<glyph unicode="&#x2004;" horiz-adv-x="553" />
<glyph unicode="&#x2005;" horiz-adv-x="415" />
<glyph unicode="&#x2006;" horiz-adv-x="276" />
<glyph unicode="&#x2007;" horiz-adv-x="276" />
<glyph unicode="&#x2008;" horiz-adv-x="207" />
<glyph unicode="&#x2009;" horiz-adv-x="332" />
<glyph unicode="&#x200a;" horiz-adv-x="92" />
<glyph unicode="&#x2010;" horiz-adv-x="1159" d="M144 503h831v125h-831v-125z" />
<glyph unicode="&#x2011;" horiz-adv-x="1159" d="M144 503h831v125h-831v-125z" />
<glyph unicode="&#x2012;" horiz-adv-x="1159" d="M144 503h831v125h-831v-125z" />
<glyph unicode="&#x2013;" horiz-adv-x="1100" d="M0 379h1097v127h-1097v-127z" />
<glyph unicode="&#x2014;" horiz-adv-x="1699" d="M0 379h1702v127h-1702v-127z" />
<glyph unicode="&#x2018;" horiz-adv-x="503" d="M101 1200q15 -219 138 -401h101q-57 117 -80 193q-30 102 -25 207q-36 1 -134 1z" />
<glyph unicode="&#x2019;" horiz-adv-x="494" d="M98 799q57 117 80 193q30 102 25 208q36 0 135 1q-15 -220 -138 -402h-102z" />
<glyph unicode="&#x201a;" horiz-adv-x="399" d="M2 -219q58 117 80 194q30 102 26 208q36 0 134 1q-15 -220 -138 -403h-102z" />
<glyph unicode="&#x201c;" horiz-adv-x="699" d="M101 1200q15 -219 138 -401h101q-57 117 -80 193q-30 102 -25 207q-36 1 -134 1zM357 1200q15 -219 138 -401h101q-57 117 -80 193q-30 102 -25 207q-36 1 -134 1z" />
<glyph unicode="&#x201d;" horiz-adv-x="687" d="M98 799q57 117 80 193q30 102 25 208q36 0 135 1q-15 -220 -138 -402h-102zM346 799q57 117 80 193q30 102 25 208q36 0 135 1q-15 -220 -138 -402h-102z" />
<glyph unicode="&#x201e;" horiz-adv-x="616" d="M7 -218q57 117 80 192q30 103 25 208q36 0 134 1q-15 -219 -137 -401h-102zM243 -218q57 117 80 192q30 103 25 208q36 0 134 1q-15 -219 -138 -401h-101z" />
<glyph unicode="&#x2022;" horiz-adv-x="901" d="M204 655q0 104 74 178t178 74q105 0 179 -74t74 -178q0 -105 -74 -179t-179 -74q-104 0 -178 74t-74 179z" />
<glyph unicode="&#x2026;" horiz-adv-x="1599" d="M0 0h200v200h-200v-200zM599 0h200v200h-200v-200zM599 0h200v200h-200v-200zM1196 0h200v200h-200v-200z" />
<glyph unicode="&#x202f;" horiz-adv-x="332" />
<glyph unicode="&#x2039;" horiz-adv-x="501" d="M0 395l267 -395h136l-267 395l272 403h-136z" />
<glyph unicode="&#x203a;" horiz-adv-x="558" d="M0 798l272 -403l-267 -395h136l267 395l-272 403h-136z" />
<glyph unicode="&#x205f;" horiz-adv-x="415" />
<glyph unicode="&#x20ac;" horiz-adv-x="948" d="M43 378h134q67 -213 267 -311q199 -99 470 -52q-15 37 -42 118q-189 -15 -328 53q-133 65 -194 192h272v95h-305q-12 54 -12 111q0 37 5 75h312v95h-291q51 156 190 234q145 81 354 58q5 49 23 124q-311 32 -505 -95q-169 -111 -223 -321h-127v-95h109q-4 -41 -4 -81 q0 -53 7 -105h-112v-95z" />
<glyph unicode="&#x2122;" horiz-adv-x="1497" d="M1 1207h233v-700h100v700h233v92h-566v-92zM621 501h103l44 689l216 -689h117l203 689l56 -689h104l-63 791h-161l-195 -649l-204 649h-165z" />
<glyph unicode="&#x25fc;" horiz-adv-x="800" d="M0 0v800h800v-800h-800z" />
</font>
</defs>
</svg>
